<svg width="23" height="23" viewBox="0 0 23 23" fill="none" xmlns="http://www.w3.org/2000/svg">
<path opacity="0.1" fill-rule="evenodd" clip-rule="evenodd" d="M0.262817 11.7743C0.262817 5.62346 5.24907 0.637207 11.3999 0.637207C17.5508 0.637207 22.537 5.62346 22.537 11.7743C22.537 17.9252 17.5508 22.9114 11.3999 22.9114C5.24907 22.9114 0.262817 17.9252 0.262817 11.7743Z" fill="white"/>
<path fill-rule="evenodd" clip-rule="evenodd" d="M17.3397 11.7663C17.3397 12.168 17.2988 12.5691 17.2184 12.9601C17.1401 13.3419 17.0241 13.7166 16.8721 14.0749C16.7236 14.4268 16.5395 14.7659 16.3242 15.0822C16.1122 15.3965 15.868 15.6913 15.5997 15.9601C15.3308 16.2277 15.035 16.4712 14.7209 16.6841C14.4036 16.8979 14.064 17.0818 13.7118 17.2309C13.3531 17.3821 12.9774 17.498 12.596 17.5762C12.2045 17.6567 11.8019 17.6978 11.3996 17.6978C10.997 17.6978 10.5945 17.6567 10.2035 17.5762C9.82149 17.498 9.44588 17.3821 9.08738 17.2309C8.73528 17.0818 8.39533 16.8979 8.07803 16.6841C7.76391 16.4712 7.46807 16.2277 7.19978 15.9601C6.93121 15.6913 6.68698 15.3965 6.47467 15.0822C6.26061 14.7659 6.07613 14.4268 5.92706 14.0749C5.77506 13.7166 5.65877 13.3418 5.58016 12.9601C5.5007 12.5691 5.46008 12.168 5.46008 11.7663C5.46008 11.3643 5.50068 10.9623 5.58019 10.5721C5.65879 10.1904 5.77508 9.81504 5.92708 9.45736C6.07616 9.10519 6.26064 8.76575 6.47469 8.44947C6.687 8.13495 6.93123 7.84067 7.1998 7.5716C7.46809 7.30397 7.76394 7.061 8.07805 6.84842C8.39536 6.63379 8.7353 6.4499 9.08741 6.30044C9.44591 6.14894 9.82149 6.03281 10.2035 5.9552C10.5945 5.87527 10.9971 5.83472 11.3996 5.83472C11.8019 5.83472 12.2045 5.87527 12.596 5.9552C12.9774 6.03284 13.3531 6.14896 13.7119 6.30044C14.064 6.44988 14.4036 6.63379 14.7209 6.84842C15.035 7.061 15.3309 7.30397 15.5997 7.5716C15.868 7.84067 16.1123 8.13495 16.3243 8.44947C16.5395 8.76575 16.7236 9.10521 16.8721 9.45736C17.0241 9.81504 17.1401 10.1904 17.2184 10.5721C17.2988 10.9623 17.3397 11.3643 17.3397 11.7663ZM9.23527 7.18466C7.82072 7.85168 6.76496 9.15326 6.43575 10.7219C6.56948 10.723 8.68332 10.7497 11.1188 10.1035C10.2409 8.54589 9.30286 7.27476 9.23527 7.18466ZM11.5391 10.8835C8.92725 11.6643 6.42096 11.6081 6.33106 11.6047C6.3296 11.6591 6.32699 11.7118 6.32699 11.7663C6.32699 13.0675 6.81861 14.2538 7.62668 15.1508C7.62493 15.1482 9.01311 12.689 11.7505 11.8051C11.8166 11.7831 11.884 11.7634 11.9507 11.7443C11.8233 11.4564 11.6844 11.1679 11.5391 10.8835ZM14.7496 7.96463C13.8565 7.17828 12.6839 6.7013 11.3996 6.7013C10.9874 6.7013 10.5875 6.75112 10.2043 6.84321C10.2803 6.94518 11.2331 8.20735 12.1006 9.79795C14.0146 9.08143 14.7371 7.98316 14.7496 7.96463ZM12.2964 12.5836C12.2851 12.5873 12.2738 12.5906 12.2628 12.5946C9.26987 13.6365 8.2925 15.7361 8.28192 15.7591C9.14308 16.4278 10.2232 16.8312 11.3996 16.8312C12.1021 16.8312 12.7712 16.6884 13.38 16.4298C13.3049 15.9873 13.0102 14.436 12.2964 12.5836ZM14.2342 15.967C15.3732 15.1995 16.1821 13.9808 16.4078 12.5691C16.3033 12.5355 14.8842 12.0869 13.2469 12.349C13.9122 14.1748 14.1826 15.6617 14.2342 15.967ZM12.4911 10.5527C12.6088 10.7943 12.7228 11.0401 12.8281 11.2872C12.8655 11.3759 12.9021 11.4628 12.9377 11.5496C14.6803 11.3307 16.3971 11.6991 16.4705 11.7141C16.4589 10.5133 16.0287 9.4113 15.317 8.54852C15.3074 8.5621 14.4938 9.73597 12.4911 10.5527Z" fill="white"/>
</svg>
