<svg width="46" height="40" viewBox="0 0 46 40" fill="none" xmlns="http://www.w3.org/2000/svg">
<path d="M45.9187 26.8834C45.9187 33.8031 40.3092 39.4126 33.3894 39.4126L14.5956 39.4126C12.6734 39.4126 11.1152 37.8544 11.1152 35.9322L11.1152 12.2659C11.1152 8.4216 14.2316 5.30519 18.0759 5.30519L42.4384 5.30519C44.3605 5.30519 45.9187 6.8634 45.9187 8.78554L45.9187 26.8834Z" fill="#E8F5E9"/>
<path d="M17.3728 7.39331C14.887 7.39331 12.8633 9.4355 12.8633 11.9319C12.8633 13.5112 13.6743 14.9056 14.8988 15.7184C13.4198 16.213 12.14 17.1372 11.2013 18.3464C10.6824 17.9473 10.1025 17.6262 9.47735 17.3962C10.4253 16.6924 11.0448 15.5619 11.0448 14.2913C11.0448 12.1741 9.33239 10.4408 7.22795 10.4408C5.12352 10.4408 3.41113 12.1741 3.41113 14.2913C3.41113 15.5627 4.03112 16.6937 4.97987 17.3974C2.46805 18.3243 0.674133 20.7511 0.674133 23.607V25.6132C0.67439 25.7662 0.735566 25.9127 0.844036 26.0204C0.952505 26.1283 1.09928 26.1885 1.25222 26.188H10.054C10.0753 26.1903 10.0967 26.1916 10.118 26.1913H24.6282C24.6495 26.1916 24.6711 26.1903 24.6922 26.188H33.4946C33.811 26.1867 34.0673 25.9299 34.068 25.6132V23.607C34.068 20.7511 32.2772 18.3243 29.7667 17.3972C30.7155 16.6937 31.3355 15.5624 31.3355 14.2911C31.3355 12.1738 29.6231 10.4406 27.5186 10.4406C25.4143 10.4406 23.7018 12.1738 23.7018 14.2911C23.7018 15.5617 24.3215 16.6924 25.2695 17.3959C24.6431 17.6265 24.0629 17.9486 23.5432 18.3487C22.605 17.1388 21.327 16.2132 19.848 15.7184C21.0723 14.9056 21.8836 13.5112 21.8836 11.9319C21.8836 9.4355 19.8588 7.39331 17.373 7.39331H17.3728ZM17.3728 8.54486C19.232 8.54486 20.7308 10.0537 20.7308 11.9319C20.7308 13.7955 19.2554 15.2896 17.4168 15.3136C17.4021 15.3136 17.3877 15.3115 17.3728 15.3115C17.3579 15.3115 17.3438 15.3136 17.3289 15.3136C15.4903 15.2899 14.0158 13.7955 14.0158 11.9319C14.0158 10.0535 15.5134 8.54486 17.3726 8.54486H17.3728ZM7.22802 11.5923C8.70319 11.5923 9.89329 12.7896 9.89329 14.2913C9.89329 15.7829 8.71858 16.975 7.2573 16.9912C7.24753 16.9912 7.23802 16.9902 7.228 16.9902C7.21823 16.9902 7.20872 16.9912 7.1987 16.9912C5.73742 16.975 4.5627 15.7826 4.5627 14.2913C4.5627 12.7897 5.75281 11.5923 7.22798 11.5923H7.22802ZM27.5183 11.5923C28.9935 11.5923 30.1836 12.7896 30.1836 14.2913C30.1836 15.7829 29.0089 16.975 27.5476 16.9912C27.5378 16.9912 27.5283 16.9902 27.5183 16.9902C27.5085 16.9902 27.499 16.9912 27.489 16.9912C26.0277 16.975 24.853 15.7826 24.853 14.2913C24.853 12.7897 26.0431 11.5923 27.5182 11.5923H27.5183ZM17.3287 16.4651C17.3434 16.4653 17.3578 16.4671 17.3727 16.4671C17.3873 16.4671 17.4017 16.4651 17.4166 16.4651C21.1039 16.4887 24.0548 19.465 24.0548 23.1908L24.0546 25.0394H10.6914V23.1908C10.6914 19.4647 13.6414 16.4888 17.3282 16.4651H17.3287ZM7.18393 18.1441C7.19858 18.1444 7.21298 18.1461 7.22789 18.1461C7.24279 18.1461 7.25693 18.1441 7.27184 18.1441C8.519 18.1541 9.65719 18.5841 10.5635 19.3036C9.91497 20.4511 9.53993 21.7755 9.53993 23.1911V25.0354H1.82522V23.607C1.82522 20.579 4.20596 18.1677 7.1838 18.1438L7.18393 18.1441ZM27.4742 18.1441C27.4891 18.1444 27.5032 18.1461 27.5182 18.1461C27.5331 18.1461 27.5472 18.1441 27.5621 18.1441C30.5399 18.1677 32.9207 20.5793 32.9207 23.6072V25.0354H25.202L25.2018 23.1911C25.2018 21.7763 24.8278 20.4528 24.1805 19.3056C25.0871 18.5852 26.2261 18.1541 27.4743 18.1441H27.4742Z" fill="#103E13"/>
</svg>
