<svg width="34" height="34" viewBox="0 0 34 34" fill="none" xmlns="http://www.w3.org/2000/svg">
<path d="M7.09077 5.71704H26.9287C28.0103 5.71704 29.0506 6.12046 29.8486 6.84302L30.0048 6.99146C30.8206 7.80727 31.2792 8.9139 31.2792 10.0676V23.6409C31.2792 24.7947 30.8207 25.9012 30.0048 26.717C29.189 27.5329 28.0825 27.9915 26.9287 27.9915H7.09077C6.00916 27.9914 4.96884 27.589 4.17085 26.8665L4.0146 26.717C3.19891 25.9012 2.74019 24.7945 2.74019 23.6409V10.0676C2.74024 8.98592 3.14349 7.94572 3.86616 7.14771L4.0146 6.99146C4.7794 6.22666 5.79981 5.77632 6.87495 5.7229L7.09077 5.71704ZM4.13276 23.6409C4.13276 24.3273 4.37141 24.9895 4.80269 25.5159L4.99898 25.7327C5.55371 26.2874 6.30627 26.5998 7.09077 26.5999H26.9287C27.7133 26.5999 28.4657 26.2875 29.0205 25.7327C29.5752 25.1779 29.8876 24.4255 29.8876 23.6409V13.3743H4.13276V23.6409ZM22.2304 20.3352H25.3632C25.5015 20.3353 25.6356 20.3759 25.749 20.4514L25.8554 20.5383C25.9859 20.6688 26.0584 20.8461 26.0585 21.0305C26.0585 21.2149 25.9857 21.3922 25.8554 21.5227C25.725 21.6531 25.5477 21.7267 25.3632 21.7268H22.2304C22.0458 21.7268 21.8688 21.6532 21.7382 21.5227C21.6079 21.3922 21.5341 21.215 21.5341 21.0305C21.5342 20.8922 21.5757 20.7582 21.6513 20.6448L21.7382 20.5383C21.8687 20.4079 22.0459 20.3352 22.2304 20.3352ZM7.09077 7.10962C6.30627 7.10968 5.55371 7.4211 4.99898 7.97583C4.44424 8.53056 4.13282 9.28312 4.13276 10.0676V11.9817H29.8876V10.0676C29.8876 9.38118 29.649 8.71899 29.2177 8.19263L29.0205 7.97583C28.4657 7.42121 27.7131 7.10962 26.9287 7.10962H7.09077Z" fill="#4CAF4F" stroke="#4CAF4F" stroke-width="0.696069"/>
</svg>
