<svg width="24" height="23" viewBox="0 0 24 23" fill="none" xmlns="http://www.w3.org/2000/svg">
<path opacity="0.1" fill-rule="evenodd" clip-rule="evenodd" d="M0.85144 11.7743C0.85144 5.62346 5.8377 0.637207 11.9886 0.637207C18.1394 0.637207 23.1257 5.62346 23.1257 11.7743C23.1257 17.9252 18.1394 22.9114 11.9886 22.9114C5.8377 22.9114 0.85144 17.9252 0.85144 11.7743Z" fill="white"/>
<path fill-rule="evenodd" clip-rule="evenodd" d="M11.9892 5.83472C10.376 5.83472 10.1736 5.84177 9.53998 5.8706C8.90763 5.89956 8.476 5.99967 8.09833 6.14656C7.70766 6.29827 7.37626 6.50122 7.04611 6.8315C6.7157 7.16166 6.51276 7.49305 6.36055 7.8836C6.21329 8.26139 6.11305 8.69315 6.08459 9.32525C6.05625 9.95883 6.04883 10.1614 6.04883 11.7746C6.04883 13.3877 6.05601 13.5896 6.08471 14.2232C6.1138 14.8555 6.21391 15.2871 6.36067 15.6648C6.51251 16.0555 6.71545 16.3869 7.04573 16.717C7.37577 17.0474 7.70716 17.2509 8.09758 17.4026C8.47551 17.5495 8.90726 17.6496 9.53948 17.6785C10.1731 17.7074 10.3754 17.7144 11.9884 17.7144C13.6017 17.7144 13.8036 17.7074 14.4371 17.6785C15.0695 17.6496 15.5016 17.5495 15.8795 17.4026C16.2701 17.2509 16.601 17.0474 16.931 16.717C17.2614 16.3869 17.4644 16.0555 17.6166 15.6649C17.7626 15.2871 17.8628 14.8554 17.8925 14.2233C17.921 13.5897 17.9284 13.3877 17.9284 11.7746C17.9284 10.1614 17.921 9.95896 17.8925 9.32537C17.8628 8.69302 17.7626 8.26139 17.6166 7.88372C17.4644 7.49305 17.2614 7.16166 16.931 6.8315C16.6006 6.50109 16.2702 6.29815 15.8792 6.14656C15.5005 5.99967 15.0686 5.89956 14.4363 5.8706C13.8027 5.84177 13.601 5.83472 11.9873 5.83472H11.9892ZM11.4563 6.90511C11.6144 6.90486 11.7909 6.90511 11.9892 6.90511C13.5751 6.90511 13.7631 6.9108 14.3893 6.93927C14.9685 6.96575 15.2828 7.06252 15.4922 7.14382C15.7694 7.25148 15.967 7.38018 16.1748 7.58807C16.3827 7.79597 16.5114 7.99396 16.6193 8.27115C16.7006 8.48029 16.7975 8.7946 16.8238 9.37374C16.8523 9.9999 16.8585 10.188 16.8585 11.7732C16.8585 13.3584 16.8523 13.5465 16.8238 14.1726C16.7973 14.7518 16.7006 15.0661 16.6193 15.2752C16.5116 15.5524 16.3827 15.7498 16.1748 15.9576C15.9669 16.1655 15.7695 16.2942 15.4922 16.4018C15.283 16.4835 14.9685 16.58 14.3893 16.6065C13.7632 16.635 13.5751 16.6412 11.9892 16.6412C10.4031 16.6412 10.2151 16.635 9.58896 16.6065C9.00982 16.5798 8.6955 16.483 8.486 16.4017C8.20881 16.294 8.01081 16.1653 7.80292 15.9575C7.59502 15.7496 7.46632 15.5521 7.35842 15.2747C7.27712 15.0656 7.18022 14.7513 7.15386 14.1722C7.1254 13.546 7.11971 13.3579 7.11971 11.7717C7.11971 10.1855 7.1254 9.99841 7.15386 9.37225C7.18035 8.79312 7.27712 8.4788 7.35842 8.26942C7.46608 7.99223 7.59502 7.79423 7.80292 7.58634C8.01081 7.37844 8.20881 7.24975 8.486 7.14184C8.69538 7.06017 9.00982 6.96364 9.58896 6.93704C10.1369 6.91229 10.3493 6.90486 11.4563 6.90363V6.90511ZM15.1598 7.89138C14.7663 7.89138 14.447 8.21027 14.447 8.60391C14.447 8.99743 14.7663 9.31669 15.1598 9.31669C15.5533 9.31669 15.8726 8.99743 15.8726 8.60391C15.8726 8.2104 15.5533 7.89138 15.1598 7.89138ZM11.9892 8.72419C10.3046 8.72419 8.93882 10.09 8.93882 11.7746C8.93882 13.4591 10.3046 14.8243 11.9892 14.8243C13.6738 14.8243 15.0391 13.4591 15.0391 11.7746C15.0391 10.09 13.6738 8.72419 11.9892 8.72419ZM11.9892 9.7946C13.0826 9.7946 13.9691 10.681 13.9691 11.7746C13.9691 12.868 13.0826 13.7545 11.9892 13.7545C10.8956 13.7545 10.0092 12.868 10.0092 11.7746C10.0092 10.681 10.8956 9.7946 11.9892 9.7946Z" fill="white"/>
</svg>
