<svg width="34" height="35" viewBox="0 0 34 35" fill="none" xmlns="http://www.w3.org/2000/svg">
<rect x="0.14209" y="0.919434" width="33.4113" height="33.4113" rx="5.56856" fill="#E8F5E9"/>
<g clip-path="url(#clip0_211_2511)">
<path fill-rule="evenodd" clip-rule="evenodd" d="M7.34876 1.05469C11.193 1.05469 14.3095 4.17109 14.3095 8.01538V1.05469H21.2701C25.1144 1.05469 28.2308 4.17109 28.2308 8.01538C28.2308 11.8596 25.1144 14.9761 21.2701 14.9761C25.1144 14.9761 28.2308 18.0925 28.2308 21.9368C28.2308 23.8456 27.4625 25.575 26.2182 26.8325L26.1921 26.8587L26.169 26.8817C24.9112 28.1278 23.1806 28.8975 21.2701 28.8975C19.3727 28.8975 17.6526 28.1383 16.397 26.9071C16.3807 26.891 16.3644 26.8749 16.3482 26.8587C16.3329 26.8435 16.3178 26.8282 16.3026 26.8128C15.0698 25.557 14.3095 23.8356 14.3095 21.9368C14.3095 25.781 11.193 28.8975 7.34876 28.8975C3.50447 28.8975 0.388062 25.781 0.388062 21.9368V14.9761H7.34876C3.50447 14.9761 0.388062 11.8596 0.388062 8.01538C0.388062 4.17109 3.50447 1.05469 7.34876 1.05469ZM12.9173 8.01538C12.9173 11.0908 10.4242 13.5839 7.34876 13.5839V2.44683C10.4242 2.44683 12.9173 4.93995 12.9173 8.01538ZM26.8387 21.9368C26.8387 18.8613 24.3456 16.3682 21.2701 16.3682C18.1947 16.3682 15.7016 18.8613 15.7016 21.9368H26.8387ZM1.7802 16.3682V21.9368C1.7802 25.0122 4.27333 27.5053 7.34876 27.5053C10.4242 27.5053 12.9173 25.0122 12.9173 21.9368V16.3682H1.7802ZM15.7016 13.5839V2.44683H21.2701C24.3456 2.44683 26.8387 4.93995 26.8387 8.01538C26.8387 11.0908 24.3456 13.5839 21.2701 13.5839H15.7016Z" fill="#5417D7"/>
</g>
<defs>
<clipPath id="clip0_211_2511">
<rect width="27.8428" height="27.8428" fill="white" transform="translate(0.388062 1.05469)"/>
</clipPath>
</defs>
</svg>
