<svg width="23" height="23" viewBox="0 0 23 23" fill="none" xmlns="http://www.w3.org/2000/svg">
<path opacity="0.1" fill-rule="evenodd" clip-rule="evenodd" d="M0.0854492 11.7743C0.0854492 5.62346 5.0717 0.637207 11.2226 0.637207C17.3734 0.637207 22.3597 5.62346 22.3597 11.7743C22.3597 17.9252 17.3734 22.9114 11.2226 22.9114C5.0717 22.9114 0.0854492 17.9252 0.0854492 11.7743Z" fill="white"/>
<path fill-rule="evenodd" clip-rule="evenodd" d="M15.8638 7.94583C16.375 8.0861 16.7776 8.49939 16.9142 9.02422C17.1624 9.97544 17.1624 11.9601 17.1624 11.9601C17.1624 11.9601 17.1624 13.9448 16.9142 14.8961C16.7776 15.4209 16.375 15.8342 15.8638 15.9745C14.9375 16.2294 11.2226 16.2294 11.2226 16.2294C11.2226 16.2294 7.50776 16.2294 6.58136 15.9745C6.0702 15.8342 5.66764 15.4209 5.53103 14.8961C5.28284 13.9448 5.28284 11.9601 5.28284 11.9601C5.28284 11.9601 5.28284 9.97544 5.53103 9.02422C5.66764 8.49939 6.0702 8.0861 6.58136 7.94583C7.50776 7.69092 11.2226 7.69092 11.2226 7.69092C11.2226 7.69092 14.9375 7.69092 15.8638 7.94583ZM10.1089 10.2895V14.0019L13.0788 12.1458L10.1089 10.2895Z" fill="white"/>
</svg>
